<svg width="312" height="70" viewBox="0 0 312 70" fill="none" xmlns="http://www.w3.org/2000/svg">
<g clip-path="url(#clip0_4_6)">
<path d="M190.212 0.00582911C183.331 0.00499034 176.605 2.05674 170.884 5.90162C165.162 9.7465 160.702 15.2118 158.069 21.6064C155.435 28.0011 154.745 35.0378 156.087 41.8267C157.428 48.6157 160.741 54.852 165.606 59.747C170.471 64.642 176.669 67.9758 183.417 69.3269C190.166 70.6779 197.161 69.9856 203.518 67.3373C209.875 64.6891 215.309 60.2039 219.132 54.449C222.955 48.6941 224.996 41.9279 224.997 35.0061V35.0029C224.986 25.7251 221.318 16.8303 214.797 10.2695C208.276 3.70871 199.435 0.0176147 190.212 0.00582911ZM190.212 53.4864C186.578 53.4864 183.025 52.4023 180.004 50.3712C176.982 48.3401 174.627 45.4532 173.236 42.0756C171.845 38.698 171.482 34.9813 172.191 31.3957C172.9 27.81 174.65 24.5164 177.219 21.9313C179.789 19.3462 183.063 17.5857 186.627 16.8724C190.192 16.1592 193.886 16.5253 197.244 17.9243C200.601 19.3234 203.471 21.6926 205.49 24.7324C207.509 27.7721 208.587 31.346 208.587 35.0019C208.582 39.9029 206.645 44.6019 203.2 48.0675C199.755 51.533 195.084 53.482 190.212 53.4864Z" fill="white"/>
<path d="M272.64 0.00582963C264.858 0.00427966 257.249 2.32417 250.777 6.67218C244.305 11.0202 239.26 17.2011 236.279 24.4334C233.299 31.6657 232.517 39.6246 234.033 47.3039C235.548 54.9831 239.293 62.0379 244.794 67.5762C245.554 68.3515 246.459 68.968 247.456 69.3902C248.454 69.8124 249.524 70.032 250.607 70.0362C251.689 70.0405 252.761 69.8294 253.762 69.4151C254.763 69.0008 255.672 68.3915 256.438 67.6222C257.204 66.8529 257.811 65.9389 258.224 64.9327C258.637 63.9264 258.849 62.848 258.846 61.7593C258.843 60.6706 258.626 59.5932 258.208 58.5891C257.79 57.585 257.178 56.674 256.409 55.9086C253.201 52.6795 251.017 48.5661 250.133 44.0884C249.249 39.6108 249.704 34.97 251.442 30.7527C253.179 26.5354 256.12 22.931 259.894 20.3951C263.667 17.8592 268.103 16.5057 272.641 16.5057C277.179 16.5057 281.615 17.8592 285.388 20.3951C289.162 22.931 292.103 26.5354 293.84 30.7527C295.578 34.97 296.033 39.6108 295.149 44.0884C294.265 48.5661 292.081 52.6795 288.873 55.9086C287.353 57.4617 286.505 59.5565 286.514 61.736C286.524 63.9155 287.389 66.0029 288.923 67.5428C290.456 69.0828 292.532 69.9504 294.699 69.9564C296.865 69.9623 298.946 69.1062 300.488 67.5747C305.988 62.0361 309.732 54.9813 311.247 47.3022C312.762 39.6232 311.98 31.6646 309 24.4327C306.019 17.2007 300.974 11.0202 294.502 6.67232C288.03 2.32446 280.422 0.00453244 272.64 0.00582963Z" fill="white"/>
<path d="M39.3609 0.00591362C31.5783 0.00436365 23.97 2.32425 17.498 6.67227C11.0259 11.0203 5.9807 17.2012 3.00025 24.4335C0.0198044 31.6658 -0.762053 39.6247 0.753533 47.304C2.26912 54.9832 6.01409 62.038 11.515 67.5763C13.0564 69.1093 15.138 69.9666 17.3055 69.9611C19.473 69.9556 21.5504 69.0878 23.0841 67.547C24.6179 66.0063 25.4835 63.9178 25.492 61.7373C25.5005 59.5568 24.6512 57.4615 23.1295 55.9087C19.9218 52.6795 17.7379 48.5661 16.8537 44.0885C15.9696 39.6109 16.425 34.9701 18.1623 30.7528C19.8997 26.5355 22.8409 22.9311 26.6143 20.3952C30.3877 17.8593 34.8238 16.5058 39.3617 16.5058C43.8996 16.5058 48.3357 17.8593 52.1091 20.3952C55.8825 22.9311 58.8237 26.5355 60.5611 30.7528C62.2984 34.9701 62.7538 39.6109 61.8697 44.0885C60.9855 48.5661 58.8016 52.6795 55.5939 55.9087C54.0722 57.4615 53.2229 59.5568 53.2314 61.7373C53.2399 63.9178 54.1055 66.0063 55.6393 67.547C57.173 69.0878 59.2504 69.9556 61.4179 69.9611C63.5854 69.9666 65.667 69.1093 67.2084 67.5763C72.7091 62.0378 76.4539 54.9829 77.9693 47.3036C79.4847 39.6242 78.7027 31.6653 75.7221 24.4331C72.7415 17.2008 67.6961 11.02 61.224 6.67205C54.7519 2.32411 47.1435 0.00430209 39.3609 0.00591362Z" fill="white"/>
<path d="M146.445 21.4029C147.951 19.8221 148.771 17.7044 148.724 15.5155C148.678 13.3267 147.769 11.246 146.198 9.73107C141.276 4.98599 135.076 1.80041 128.369 0.570103C121.662 -0.660199 114.744 0.119011 108.473 2.81092C102.203 5.50283 96.8572 9.98878 93.0999 15.7114C89.3425 21.4341 87.3394 28.1412 87.3394 34.9995C87.3394 41.8577 89.3425 48.5648 93.0999 54.2875C96.8572 60.0101 102.203 64.4961 108.473 67.188C114.744 69.8799 121.662 70.6591 128.369 69.4288C135.076 68.1985 141.276 65.0129 146.198 60.2679C146.981 59.5189 147.608 58.6219 148.046 57.6283C148.483 56.6347 148.721 55.5641 148.746 54.4778C148.771 53.3915 148.583 52.3109 148.192 51.2979C147.801 50.2849 147.216 49.3595 146.469 48.5746C145.722 47.7898 144.828 47.161 143.839 46.7243C142.85 46.2877 141.785 46.0516 140.705 46.0298C139.625 46.008 138.551 46.2009 137.546 46.5973C136.54 46.9937 135.622 47.5859 134.844 48.3399C132.245 50.8467 128.97 52.5297 125.428 53.1799C121.885 53.8301 118.231 53.4188 114.918 51.9972C111.606 50.5755 108.782 48.2061 106.798 45.1835C104.813 42.1608 103.755 38.6181 103.755 34.9955C103.755 31.3729 104.813 27.8302 106.798 24.8075C108.782 21.7849 111.606 19.4155 114.918 17.9938C118.231 16.5722 121.885 16.1609 125.428 16.8111C128.97 17.4613 132.245 19.1443 134.844 21.651C135.621 22.4018 136.536 22.9913 137.539 23.3859C138.542 23.7804 139.613 23.9723 140.689 23.9506C141.766 23.9288 142.828 23.6938 143.814 23.2591C144.8 22.8243 145.692 22.1983 146.438 21.4167L146.445 21.4029Z" fill="white"/>
<path d="M122.137 43.2486C126.666 43.2486 130.338 39.555 130.338 34.9987C130.338 30.4424 126.666 26.7488 122.137 26.7488C117.608 26.7488 113.936 30.4424 113.936 34.9987C113.936 39.555 117.608 43.2486 122.137 43.2486Z" fill="white"/>
</g>
<defs>
<clipPath id="clip0_4_6">
<rect width="312" height="70" fill="white"/>
</clipPath>
</defs>
</svg>
